<svg xmlns="http://www.w3.org/2000/svg" width="584.27" height="848" viewBox="0 0 584.27 848">
  <defs>
    <style>
      .cls-1 {
        fill: #d19974;
      }

      .cls-2 {
        fill: #d1956d;
      }

      .cls-3 {
        fill: #d39e76;
      }

      .cls-12, .cls-4 {
        fill: #fff;
      }

      .cls-5 {
        fill: #07822c;
      }

      .cls-6 {
        fill: #d18b5d;
      }

      .cls-7 {
        fill: #113a4b;
      }

      .cls-8 {
        fill: #1f1f1f;
      }

      .cls-9 {
        fill: #e8e8e8;
      }

      .cls-10 {
        fill: #d3ac44;
      }

      .cls-11 {
        fill: #bf9948;
      }

      .cls-12 {
        stroke: #d6d6d6;
        stroke-linecap: round;
        stroke-miterlimit: 10;
        stroke-width: 0.25px;
      }

      .cls-13 {
        fill: #ec892a;
      }

      .cls-14 {
        font-size: 12px;
        font-family: KohinoorBangla-Regular, Kohinoor Bangla;
      }

      .cls-15 {
        letter-spacing: -0.01em;
      }

      .cls-16 {
        letter-spacing: -0.01em;
      }

      .cls-17 {
        letter-spacing: 0em;
      }

      .cls-18 {
        letter-spacing: -0.02em;
      }

      .cls-19 {
        letter-spacing: 0em;
      }

      .cls-20 {
        letter-spacing: -0.01em;
      }

      .cls-21 {
        letter-spacing: -0.02em;
      }

      .cls-22 {
        letter-spacing: 0em;
      }

      .cls-23 {
        letter-spacing: 0em;
      }

      .cls-24 {
        font-family: MyriadPro-Regular, Myriad Pro;
      }
    </style>
  </defs>
  <title>polititext</title>
  <g id="hat">
    <path class="cls-1" d="M129.63,295.09s1.88,6.44-3,6.3-5.93,1.92-5.93,1.92,8.39,19.23,16.13,17,27.69-11.14,24.41-17.76c0,0-4.25-1.51-7.3-.89,0,0-5.17.41-4-5.95S129.63,295.09,129.63,295.09Z"/>
    <path id="øre" class="cls-2" d="M99.39,241.32s-7-10-8.34-5.71-7,17.12,1.39,25.68,15.3,7.13,15.3,7.13Z"/>
    <path id="form" class="cls-3" d="M118.16,193.54,95.92,209.23s-9,89.15,46.57,89.15,30.59-94.15,30.59-94.15Z"/>
    <path id="hår_højre" data-name="hår højre" d="M175.86,228.48s6.95-4.28,0-22.82-13.9-4.28-13.9-4.28Z"/>
    <path d="M97.31,206.37S89.68,212.79,97,246c0,0,10.07-1.07,14.24-38.16S97.31,206.37,97.31,206.37Z"/>
    <ellipse id="øje_venstre" data-name="øje venstre" class="cls-4" cx="127.4" cy="239.1" rx="8.84" ry="8.02"/>
    <ellipse id="øje_højre" data-name="øje højre" class="cls-4" cx="166.33" cy="234.82" rx="8.84" ry="8.02"/>
    <ellipse class="cls-5" cx="165.24" cy="234.86" rx="5.03" ry="4.56"/>
    <ellipse class="cls-5" cx="128.75" cy="239.42" rx="5.03" ry="4.56"/>
    <path id="næse" class="cls-6" d="M144.16,256.3s-6.67-8.56,6.68-8.56,5,8.56,5,8.56H144.16Z"/>
    <path id="venstre_arm" data-name="venstre arm" class="cls-3" d="M86.93,322.31a7.14,7.14,0,0,0-2.14,3.54c-.26,1.87-3.24,34.32-3.24,34.32l-2.83,24.55v16.39s3.65,8.92,8.21,2.11c0,0-.42-7.8,1.32-10s1.82-8.63,1.82-8.63a30.06,30.06,0,0,1,0-6.45c.42-2.29,6.69-32.66,6.69-32.66s2.11-7.63,2.06-.67,3.45-3.38,3.45-3.38l-2.56-16s-5.73-5.95-7.08-4.72S86.93,322.31,86.93,322.31Z"/>
    <path id="højre_arme" data-name="højre arme" class="cls-3" d="M181.51,323.86l14.58-2.19s3.78,4.17,1.64,13l1.72,31.36,1.08,14.79s-.3,12.86-.64,13.58-5.14,7-8.57,4.6c0,0-2.23-2.24-1.12-10.16,0,0-1.4-2.23-3.65-2.25s-1.82-3.29-.24-3.68,3.11-5.47,2-10.06-4.61-31.11-4.61-31.11-1.07-3.84-3.7-2.55S181.51,323.86,181.51,323.86Z"/>
    <path class="cls-3" d="M129.42,468.26H110.05L110,423s1.45-5.33,9.81-6.13,9.6,7.19,9.6,7.19Z"/>
    <path class="cls-3" d="M152.61,469.69,151.78,423s.79-3.84,3.84-3.56,13.59.67,13.59.67,2.65.92,2.85,5.57.28,44.64.28,44.64S151.86,471.86,152.61,469.69Z"/>
    <path class="cls-7" d="M107.6,474.46s-1.06-6.36,2.84-6.33l19,.13s3.52,1,2.08,7.87S107.6,474.46,107.6,474.46Z"/>
    <path class="cls-7" d="M150.32,478.8s-2.79-6,2.29-9.11l19.73.63s4.26,1.94,1.24,7.15S150.32,478.8,150.32,478.8Z"/>
    <path class="cls-8" d="M107.6,474.46l24.11.48s7.34,8.72,4.49,13.87-32.16.79-32.16.79S98.82,486.41,107.6,474.46Z"/>
    <path class="cls-8" d="M149.62,476.13l24.53.25s9.3,11,3.8,14.41-32.28,0-32.28,0S139,489.61,149.62,476.13Z"/>
    <path class="cls-7" d="M140,325.34s17.77-23.55,20.77-23.06c47.53,7.72,36.34,19.62,36.34,19.62-10.77.48-12.4,4.7-12.4,4.7l-1.45,72.55c-50.86,49.45-85.44-6.53-85.44-6.53s2.17-59.43.68-64.93S86,322.23,86,322.23c-12.19-27.71,36.59-19.34,36.59-19.34Z"/>
    <polyline class="cls-9" points="138.82 332.2 140.52 335.19 160.21 301.85 140.52 311.28 121.98 302.46 138.82 332.2"/>
    <g>
      <path class="cls-7" d="M94.53,202.09S75.06,199.24,75.06,185c0,0,43.1-11.41,41.71-25.68,0,0,36.15,11.41,51.44-24.25,0,0,16.69,25.68,20.86,22.83s-9.73,30-15.29,28.52v14.27l-77.86,8.56Z"/>
      <path class="cls-7" d="M102.87,206.37s26.42,21.4,62.56,10c0,0,36.15-4.28,5.57-17.12S102.87,206.37,102.87,206.37Z"/>
      <polygon points="94.53 202.09 95.92 209.22 173.78 200.67 173.78 192.11 94.53 202.09"/>
      <ellipse class="cls-10" cx="158.48" cy="181.41" rx="5.56" ry="7.85"/>
    </g>
    <path class="cls-7" d="M97.84,392.62l2.06,72.54h35.88c1.61,0,.46-52.09.46-52.09h7.38l5.94,52.09h30.13l3.59-66Z"/>
    <polygon points="97.84 392.62 183.28 392.62 183.04 403.59 97.84 404.71 97.84 392.62"/>
    <rect class="cls-11" x="129.42" y="391.02" width="22.36" height="14.76"/>
    <path d="M112.72,223.78v7.06s16.95-7.21,29.35.79L138,226.29S117.43,218.6,112.72,223.78Z"/>
    <path d="M151,227.82l1.34-3.43s16.12-10.06,24.2-4.71l1.2,6.17S165.7,220.88,151,227.82Z"/>
    <path class="cls-4" d="M130.28,262.74l21.64,6.6S132.1,284,130.28,262.74Z"/>
    <path class="cls-12" d="M131.1,266.58c7.72,2.09,13.44,3.86,13.44,3.86"/>
  </g>
  <g id="Layer_11" data-name="Layer 11">
    <path class="cls-13" d="M265.31,161.81s-3.17-11.24,11.07-11.24H422.47s8.64-2.35,8.64,11.24V486s1.84,7-5.5,7H271.1s-5.79,1.88-5.79-7.54Z"/>
    <polygon class="cls-13" points="270.08 225.87 243.89 243.02 270.08 261.26 270.08 225.87"/>
    <text class="cls-14" transform="translate(274.32 167.98)">G<tspan class="cls-15" x="7.63" y="0">o</tspan><tspan x="14.24" y="0">dt du ik</tspan><tspan class="cls-16" x="55.52" y="0">k</tspan><tspan x="61.46" y="0">e delte billede!</tspan><tspan class="cls-16"><tspan x="0" y="28.8">F</tspan><tspan class="cls-17" x="5.84" y="28.8">or det er faktisk </tspan></tspan><tspan x="0" y="43.2">st</tspan><tspan class="cls-18" x="10.26" y="43.2">r</tspan><tspan x="14.35" y="43.2">afba</tspan><tspan class="cls-19" x="38.42" y="43.2">r</tspan><tspan x="42.8" y="43.2">t og ul</tspan><tspan class="cls-20" x="78.04" y="43.2">o</tspan><tspan x="84.6" y="43.2">vligt: </tspan><tspan x="0" y="86.4">- at videre </tspan><tspan x="0" y="100.8">sende nøgenbilleder af </tspan><tspan x="0" y="115.2">andre til dine venner.</tspan><tspan x="0" y="144">- at lægge nøgenbilleder af </tspan><tspan x="0" y="158.4">andre ud på nettet. </tspan><tspan x="0" y="187.2">Ud</tspan><tspan class="cls-20" x="14.87" y="187.2">o</tspan><tspan x="21.43" y="187.2">ver at det er st</tspan><tspan class="cls-21" x="101.92" y="187.2">r</tspan><tspan x="106.01" y="187.2">afba</tspan><tspan class="cls-19" x="130.08" y="187.2">r</tspan><tspan class="cls-22" x="134.46" y="187.2">t, </tspan><tspan x="0" y="201.6">er det heller ik</tspan><tspan class="cls-16" x="79.65" y="201.6">k</tspan><tspan x="85.59" y="201.6">e sj</tspan><tspan class="cls-20" x="104.29" y="201.6">o</tspan><tspan x="110.85" y="201.6">vt </tspan><tspan class="cls-23" x="124.68" y="201.6">f</tspan><tspan class="cls-17" x="128.94" y="201.6">or </tspan><tspan x="0" y="216">pe</tspan><tspan class="cls-15" x="13.22" y="216">r</tspan><tspan x="17.46" y="216">sonen det går ud </tspan><tspan class="cls-20" x="112.93" y="216">o</tspan><tspan x="119.49" y="216">ver. </tspan><tspan x="0" y="259.2" xml:space="preserve">Læs mere på:  </tspan><tspan class="cls-24"><tspan x="0" y="288"> </tspan></tspan></text>
  </g>
</svg>
